<!--?xml version="1.0" standalone="no"?-->
              <svg id="sw-js-blob-svg" viewBox="0 0 100 100" xmlns="http://www.w3.org/2000/svg" version="1.1">
                    <defs> 
                        <linearGradient id="sw-gradient" x1="0" x2="1" y1="1" y2="0">
                            <stop id="stop1" stop-color="rgba(25.609, 4.406, 60.022, 1)" offset="0%"></stop>
                            <stop id="stop2" stop-color="rgba(23.457, 5.136, 53.191, 1)" offset="100%"></stop>
                        </linearGradient>
                    </defs>
                <path fill="url(#sw-gradient)" d="M25.3,-29.2C33.1,-23.6,40,-15.9,41.5,-7.4C42.9,1.2,38.8,10.6,33.3,18.5C27.9,26.4,21.1,32.7,13.2,35C5.4,37.3,-3.4,35.5,-11,32C-18.6,28.5,-25,23.3,-29.4,16.6C-33.7,9.8,-36,1.5,-35.7,-7.4C-35.4,-16.3,-32.5,-25.8,-26.1,-31.7C-19.7,-37.6,-9.9,-39.8,-0.6,-39.2C8.7,-38.5,17.5,-34.9,25.3,-29.2Z" width="100%" height="100%" transform="translate(50 50)" stroke-width="0" style="transition: all 0.3s ease 0s;" stroke="url(#sw-gradient)"></path>
              </svg>